<svg xmlns="http://www.w3.org/2000/svg" xmlns:xlink="http://www.w3.org/1999/xlink" width="263" height="244" viewBox="0 0 263 244">
  <defs>
    <clipPath id="clip-path">
      <rect id="Rectangle_5146" data-name="Rectangle 5146" width="203.263" height="244" fill="none"/>
    </clipPath>
  </defs>
  <g id="Group_75717" data-name="Group 75717" transform="translate(-95 -180.959)">
    <g id="Group_75715" data-name="Group 75715" transform="translate(95 180.959)">
      <g id="Group_75714" data-name="Group 75714" clip-path="url(#clip-path)">
        <path id="Path_23921" data-name="Path 23921" d="M111.7,15.077c-18.268-4.264-38.236-.7-52.833,12.177C44.027,40.349,47.3,61.171,34.443,76.259c-15.609,18.328-29.806,32.116-33.43,57.55-3.768,26.439,3.011,49.966,19.7,70.982C37.2,225.557,69.558,232.735,94.8,232.249c30.8-.589,63.835-15.269,81.832-40.991,10.876-15.548,16.317-35.263,10.16-53.45-6.245-18.444-24.013-30.817-26.782-50.566-2.8-20-1.384-37.238-15.752-53.226A63.033,63.033,0,0,0,111.7,15.077" transform="translate(0 5.68)" fill="#ff385c"/>
        <path id="Path_23922" data-name="Path 23922" d="M123.357,63.892l.009,0-.009-.007Z" transform="translate(52.44 27.152)" fill="#b5d9f1"/>
        <path id="Path_23923" data-name="Path 23923" d="M137.619,67.956a8.184,8.184,0,0,0-.442-1.2c-.215-.533-.439-1.062-.675-1.585a5.232,5.232,0,0,0-.751-1.28V51.844a3.74,3.74,0,0,0-3.729-3.728H98.461a3.739,3.739,0,0,0-3.728,3.728V65.515a3.74,3.74,0,0,0,3.728,3.729h33.383a5.367,5.367,0,0,0,1.7.648l1.637.487.046.037a.763.763,0,0,0,.3.174l0,0h0c.009,0,.014.01.021.013l-.013-.006.024.013h0c.231.1.232.1.03.011a1.393,1.393,0,0,0,1.82-.523,2.16,2.16,0,0,0,.276-1.084,4.809,4.809,0,0,0-.07-1.062" transform="translate(47.884 13.412)" fill="#2c2753"/>
        <path id="Path_23924" data-name="Path 23924" d="M116.549,172.025c1.405,6.924,3.437,14.467,6.61,17.046,6.134,4.987,17.428,2.88,17.909-8.728.231-5.6-3.081-12.637-6.574-18.432l8.7-34.783a4.073,4.073,0,0,0-3.794-5.059l-17.178-.67a4.019,4.019,0,0,0-1.114.125c-4.831-5.107-12.35-11.393-21.184-13.044a4.226,4.226,0,0,0-.085-.751,1.229,1.229,0,0,0-1.065-.881c12.246-3.079,18.283-8.138,19.39-16.98,1.864-14.878-4.349-16.7-3.728-37.043.473-15.5-3.752-31.34-15.822-38.813C82,11.675,64.628,15.717,51.557,27.249c-9.21,8.125-11.449,19.223-14.89,30.082-.889,16.122-8.4,23.239-3.028,33.145a35.766,35.766,0,0,0,14.389,14.1c-11.394,3.44-23.043,16.594-28.062,30.177-4.63,12.531-2.2,28.156-1.444,32.228a1.051,1.051,0,0,0,.3,2.052c1.174-.02,2.35-.067,3.524-.131.745,5.4,2.34,14.461,5.076,18.672a21.411,21.411,0,0,0,15.189,12.338c-1.352,8.258-3.279,16.376-6.03,22.411,15.9,7.424,34.84,10.226,50.9,9.918a110.127,110.127,0,0,0,34.575-6.41c-2.277-11.327-6.477-35.288-5.512-53.809M97.389,107.572c-.16-.083-.331-.177-.5-.275.389-.088.774-.177,1.151-.268a5.53,5.53,0,0,0-.647.543" transform="translate(7.315 5.685)" fill="#ed153b"/>
        <path id="Path_23925" data-name="Path 23925" d="M81.315,17.711A17.712,17.712,0,1,1,63.6,0,17.711,17.711,0,0,1,81.315,17.711" transform="translate(19.509)" fill="#2c2753"/>
        <path id="Path_23926" data-name="Path 23926" d="M85.524,10.856C51.453,8.12,37.671,38.789,37.36,56.4s-8.7,24.9-3.107,35.22,19.575,21.861,45.367,19.431,37.56-7.324,39.153-20.038c1.864-14.878-4.351-16.7-3.729-37.043s-6.836-41.293-29.52-43.115" transform="translate(13.746 4.541)" fill="#2c2753"/>
        <path id="Path_23927" data-name="Path 23927" d="M102.924,109.884s14.766,17.837,14.285,29.445-11.776,13.716-17.909,8.728-8.012-28.533-9.316-30.271,12.94-7.9,12.94-7.9" transform="translate(38.217 46.7)" fill="#e7b8a7"/>
        <path id="Path_23928" data-name="Path 23928" d="M25.4,121.994s1.553,16.778,5.594,22.992,22.683-2.175,22.683-2.175,3.107-15.846,2.175-19.264-4.971-10.253-7.458-9.942S25.4,121.994,25.4,121.994" transform="translate(10.796 48.277)" fill="#e7b8a7"/>
        <path id="Path_23929" data-name="Path 23929" d="M55.361,76.97C43.242,79.145,30.279,93.195,24.91,107.73s-1.243,33.246-1.243,33.246S42.31,142.53,50.7,136.938c0,0-.621,45.363-11.186,62.141,0,0,53.135,22.683,88.87,6.214,0,0-10.875-46.606-5.592-70.842l9.011-32.936s-11.808-17.71-27.656-20.195l-31.7-.311Z" transform="translate(9.417 32.712)" fill="#fff"/>
        <path id="Path_23930" data-name="Path 23930" d="M95.409,92.434l-8.246,40.124a4.075,4.075,0,0,0,4.161,4.891l15.723-.656a4.072,4.072,0,0,0,3.782-3.082l9.7-38.8a4.074,4.074,0,0,0-3.794-5.059l-17.178-.668a4.073,4.073,0,0,0-4.15,3.25" transform="translate(37.018 37.901)" fill="#2c2753"/>
        <path id="Path_23931" data-name="Path 23931" d="M61.613,66.815s0,5.593-3.417,9.632-12.74,4.972-12.74,4.972S55.273,99.082,72.8,98.508c18.954-.621,21.441-12.739,21.441-12.739S83.364,82.661,83.054,68.057L68.449,66.5Z" transform="translate(19.323 28.264)" fill="#e7b8a7"/>
        <path id="Path_23932" data-name="Path 23932" d="M102.032,121.22s-65.876,25.79-72.712,28.585c0,0,5.9,16.467,28.588,12.429s48.164-26.721,52.824-30.139,23.617-12.429,24.549-15.226a10.615,10.615,0,0,0,.621-4.66s2.485-3.108-1.553-4.972c0,0,1.553-4.972-4.351-4.351s-13.672,9.012-13.672,9.012,3.728-9.322.621-9.633-4.662,6.836-7.458,10.565-4.351,5.9-7.458,8.389" transform="translate(12.464 43.458)" fill="#e7b8a7"/>
        <path id="Path_23933" data-name="Path 23933" d="M81.525,74.793a23.428,23.428,0,0,1-.965-5.344l-4.11-1.82L65.86,66.5l-6.835.311s0,5.593-3.419,9.632a11.161,11.161,0,0,1-4.062,2.762C56.219,82.189,63,83.213,67.726,82.625c3.822-.476,10.617-3.886,13.8-7.832" transform="translate(21.912 28.264)" fill="#de9c83"/>
        <path id="Path_23934" data-name="Path 23934" d="M50.811,51.442s-7.2-.685-7.458,5.593c-.311,7.457,6.215,7.768,6.215,7.768s3.724,25.784,26.615,25.784c23.959,0,24.547-39.459,24.547-39.459S85.505,40.562,79.911,30.309c0,0-14.807,19.269-29.1,21.133" transform="translate(18.425 12.881)" fill="#e7b8a7"/>
        <path id="Path_23935" data-name="Path 23935" d="M49.466,50.833a1.24,1.24,0,0,0-.324-.844l-.019-.016a5.646,5.646,0,0,0-.844-1.22,4.238,4.238,0,0,0-1.328-.99,2.26,2.26,0,0,0-1.92-.181.623.623,0,0,0,0,1.07,8.222,8.222,0,0,0,.921.311l.07.031c.071.037.143.076.211.118.053.031.1.064.154.1l.068.048.017.014c.108.1.217.192.316.3.058.061.113.125.168.19l.016.016.01.014c.044.064.074.135.115.2a2.7,2.7,0,0,0-.51.494,3.544,3.544,0,0,0-.671,1.083,1.786,1.786,0,0,0,.841,2.095,1.648,1.648,0,0,0,1.25.1,1.9,1.9,0,0,0,.456-.2.516.516,0,0,0,.048-.03,1.107,1.107,0,0,0,.188-.083,2.016,2.016,0,0,0,.895-1.767,3.423,3.423,0,0,0-.13-.862" transform="translate(19.015 20.159)" fill="#de9c83"/>
        <path id="Path_23936" data-name="Path 23936" d="M67.085,124.735c-2.99,0-5.822,1.11-8.613,2.08q-4.111,1.43-8.132,3.105c-2.591,1.077-5.132,2.274-7.641,3.53-2.483,1.241-5.569,2.588-7.495,4.63a.448.448,0,0,0,.432.742c2.608-.537,5.21-2.149,7.613-3.285,2.713-1.281,5.47-2.462,8.243-3.6q4.025-1.659,8.146-3.072c2.626-.9,5.361-1.565,7.744-3.032a.592.592,0,0,0-.3-1.094" transform="translate(14.911 53.011)" fill="#de9c83"/>
        <path id="Path_23937" data-name="Path 23937" d="M105.288,105.053a11.453,11.453,0,0,0-2.772,1.65c-.963.613-1.938,1.213-2.914,1.805q-1.419.863-2.884,1.653c-.489.265-.963.541-1.435.835a6.056,6.056,0,0,0-.68.427,4.281,4.281,0,0,0-.561.658.258.258,0,0,0,.18.435,3.778,3.778,0,0,0,1.58-.294,15.153,15.153,0,0,0,1.489-.671q1.563-.825,3.077-1.736c.985-.59,1.934-1.218,2.864-1.888a9.28,9.28,0,0,0,2.589-2.183.476.476,0,0,0-.533-.693" transform="translate(39.95 44.64)" fill="#de9c83"/>
        <path id="Path_23938" data-name="Path 23938" d="M106.756,108.352a2.285,2.285,0,0,0-1.379.57q-.7.509-1.417.989c-.985.66-2,1.287-3.013,1.9-1.97,1.188-4.136,2.043-5.938,3.483a.32.32,0,0,0,.225.542c2.367-.225,4.489-1.478,6.507-2.666a30.863,30.863,0,0,0,2.957-1.995c.455-.343.9-.694,1.347-1.052a2.407,2.407,0,0,0,1.033-1.348.339.339,0,0,0-.322-.422" transform="translate(40.349 46.049)" fill="#de9c83"/>
        <path id="Path_23939" data-name="Path 23939" d="M108.027,54a10.508,10.508,0,0,0-3.382-2.256,42.717,42.717,0,0,1-3.845-2.059A41.814,41.814,0,0,1,93.719,44.3a85.34,85.34,0,0,1-6.07-6.407q-1.513-1.753-2.93-3.584a41.763,41.763,0,0,0-2.76-3.647,1.108,1.108,0,0,0-.609-.332.58.58,0,0,0-.841-.135A19.533,19.533,0,0,0,77,34.2a42.526,42.526,0,0,1-3.781,4.194A43.181,43.181,0,0,1,53.39,49.3a52.466,52.466,0,0,1-5.652,1.054c-1.914.242-3.878.14-5.765.527a.769.769,0,0,0,0,1.471c3.523,1.027,8.069.254,11.585-.541a45.465,45.465,0,0,0,11.409-4.285,45.589,45.589,0,0,0,9.691-6.971,42.529,42.529,0,0,0,4.1-4.462,19.955,19.955,0,0,0,2-2.827c.6.956,1.331,1.864,1.979,2.746q1.362,1.855,2.813,3.644a69.085,69.085,0,0,0,6.481,7.015,45.321,45.321,0,0,0,7.094,5.421,42.712,42.712,0,0,0,4.03,2.2,7.761,7.761,0,0,0,4.341.986A.756.756,0,0,0,108.027,54" transform="translate(17.612 12.777)" fill="#473a69"/>
        <path id="Path_23940" data-name="Path 23940" d="M43.236,48.676a.915.915,0,0,0-1.546-.64c-.879.855-.881,2.065-1.06,3.212a37.112,37.112,0,0,1-1.085,4.613c-.879,3.017-1.927,5.981-2.545,9.067a25.663,25.663,0,0,0-.485,8.1A14.32,14.32,0,0,0,37.471,77a6.385,6.385,0,0,0,2.661,2.807c.634.463,1.385-.3,1.237-.95-.145-.633-.047-1.244-.185-1.89-.135-.624-.328-1.223-.5-1.838a15.541,15.541,0,0,1-.577-3.319,27.229,27.229,0,0,1,.7-7.433c.607-2.75,1.362-5.465,1.884-8.234.229-1.227.423-2.462.549-3.7.128-1.273-.1-2.522,0-3.765" transform="translate(15.463 20.311)" fill="#473a69"/>
        <path id="Path_23941" data-name="Path 23941" d="M47.058,71.392c-.041-1.5-.061-3-.13-4.494-.061-1.362-.137-2.707-.1-4.071.02-.648.138-1.273.174-1.917.021-.383.017-1-.46-1.119-1.2-.306-1.908,1.6-2.19,2.452a19.192,19.192,0,0,0-.631,4.355c-.138,1.6-.161,3.189-.144,4.794s.125,3.256,1.414,4.353a.664.664,0,0,0,.921,0c1.164-1.2,1.186-2.77,1.143-4.353" transform="translate(18.524 25.397)" fill="#473a69"/>
        <path id="Path_23942" data-name="Path 23942" d="M50.663,70.41a9.706,9.706,0,0,0-.228-2.163.752.752,0,0,0-1.24-.328,2.574,2.574,0,0,0-.708,1,4.147,4.147,0,0,0-.385,1.615,6.035,6.035,0,0,0,.168,1.405,2.2,2.2,0,0,0,.429.762.786.786,0,0,0,.266.245l-.017-.011c.021,0,.172.19.194.212a.73.73,0,0,0,1.213-.321c.02-.088.043-.175.066-.264a1.737,1.737,0,0,0,.154-.4,2.375,2.375,0,0,0,.087-.714c-.019-.346.024-.7,0-1.04" transform="translate(20.448 28.78)" fill="#473a69"/>
        <path id="Path_23943" data-name="Path 23943" d="M91.194,67.5c-.258-2.93-.636-5.855-1.139-8.754-.47-2.7-.851-6.116-2.383-8.435a.209.209,0,0,0-.378.048c-.564,2.4,0,5.05.036,7.5.043,2.71.175,5.415.154,8.128-.031,4.363-.041,9.278-2.017,13.277-.656,1.327-2.323,3.957-.278,4.935,2.095,1,3.711-1.917,4.364-3.416,1.834-4.205,2.038-8.774,1.64-13.285" transform="translate(35.796 21.341)" fill="#473a69"/>
        <path id="Path_23944" data-name="Path 23944" d="M84.347,71.793a14.134,14.134,0,0,0-.519-3.322c-.2-.641-.909-2.863-1.942-1.986a1.907,1.907,0,0,0-.428,1.218c-.073.452-.068.916-.11,1.371-.086.936-.084,1.875-.2,2.81-.056.452-.093.9-.138,1.358-.027.208-.03.241-.01.1-.01.081-.023.164-.037.245-.026.145-.061.289-.091.435-.063.308-.127.617-.187.925a5.017,5.017,0,0,0-.066.522c.031-.207.029-.229-.006-.064a1.582,1.582,0,0,0-.03.536A1.131,1.131,0,0,0,81.938,77.1a1.082,1.082,0,0,0,.18.009,1.628,1.628,0,0,0,.556-.19,2.959,2.959,0,0,0,.619-.457,3.591,3.591,0,0,0,.814-1.485,10,10,0,0,0,.241-3.183" transform="translate(34.254 28.17)" fill="#473a69"/>
        <path id="Path_23945" data-name="Path 23945" d="M79.562,71.881a.991.991,0,0,0-.923-.7.975.975,0,0,0-.921.7c-.034.147-.074.291-.121.435a3.611,3.611,0,0,0-.145.7l.043-.313a5.336,5.336,0,0,1-.205.918,4.234,4.234,0,0,0-.1.463,2.415,2.415,0,0,0-.06.475c.006.141.041.292.061.435-.01-.091-.024-.181-.036-.272a1.57,1.57,0,0,0,.145.591.994.994,0,0,0,.261.3.982.982,0,0,0,1.092.013,1.8,1.8,0,0,0,.651-.623,2.716,2.716,0,0,0,.316-.681,6.549,6.549,0,0,0,.182-1.221,2.785,2.785,0,0,0-.245-1.227" transform="translate(32.79 30.25)" fill="#473a69"/>
        <path id="Path_23946" data-name="Path 23946" d="M77.9,11.269A21.539,21.539,0,0,0,75.1,10.154a9.216,9.216,0,0,0-3.65.105,51.349,51.349,0,0,0-8.166,1.855A47.019,47.019,0,0,0,55.9,15.1c-2.329,1.2-4.984,2.505-6.657,4.581-.4.494-.048,1.389.675,1.16,2.4-.765,4.54-2.277,6.813-3.342a57.776,57.776,0,0,1,7.726-3.005,50.283,50.283,0,0,1,7.77-1.7,6.478,6.478,0,0,1,2.1-.1c.553.11,1.046.406,1.593.534a1.981,1.981,0,0,0,2.293-.761.871.871,0,0,0-.312-1.19" transform="translate(20.862 4.251)" fill="#473a69"/>
        <path id="Path_23947" data-name="Path 23947" d="M64.727,3.449A3.489,3.489,0,0,0,61.9,2.435a15.359,15.359,0,0,0-3.333.362,19.207,19.207,0,0,0-3.031.835c-1.009.369-2.554.822-2.678,2.059a.789.789,0,0,0,.4.691c.9.533,2.106-.264,2.978-.579a19.268,19.268,0,0,1,2.847-.784A27.077,27.077,0,0,1,61.9,4.7a4.514,4.514,0,0,0,2.768-.752.414.414,0,0,0,.064-.5" transform="translate(22.467 1.033)" fill="#473a69"/>
        <path id="Path_23948" data-name="Path 23948" d="M72.458,8.23c-1.211-1.4-3.929-1.05-5.565-.952a36.365,36.365,0,0,0-6.506.995,33.725,33.725,0,0,0-6.007,2.133c-1.793.826-4.07,1.774-5.277,3.391-.4.539.259,1.216.825,1.073A11.121,11.121,0,0,0,52.5,13.613c.894-.49,1.808-.942,2.743-1.348a36.183,36.183,0,0,1,5.9-1.957,33.057,33.057,0,0,1,6.128-.892c1.592-.08,3.845.316,5.183-.738a.323.323,0,0,0,0-.449" transform="translate(20.821 3.046)" fill="#473a69"/>
        <path id="Path_23949" data-name="Path 23949" d="M80.2,23.566c-.724.551-1.478.915-2.185,1.522A20.94,20.94,0,0,0,75.838,27.2c-1.3,1.481-2.537,2.992-3.893,4.422A50.341,50.341,0,0,1,62.675,39.3a57.346,57.346,0,0,1-10.542,5.411c-1.918.727-3.886,1.347-5.839,1.972s-3.967,1-5.844,1.781c-.275.115-.356.56,0,.644,3.836.9,8.347-.024,12.061-1.1A48.89,48.89,0,0,0,64.44,42.829a54.952,54.952,0,0,0,10.1-7.889,39.268,39.268,0,0,0,4.194-4.862A11.381,11.381,0,0,0,80.19,27.45a16.43,16.43,0,0,0,.691-3.364c.056-.341-.319-.792-.677-.52" transform="translate(17.095 9.98)" fill="#473a69"/>
        <path id="Path_23950" data-name="Path 23950" d="M73.274,18.785c-.05-.343-.48-.349-.69-.184A13.606,13.606,0,0,0,69.7,22.078,29.877,29.877,0,0,1,66.5,26.021a51.562,51.562,0,0,1-7.738,6.744,60.259,60.259,0,0,1-8.5,4.945c-3,1.462-6.265,2.334-9.007,4.234a.3.3,0,0,0,.151.563c3.484.365,6.769-1.057,9.933-2.438a50.58,50.58,0,0,0,9.6-5.614,53.989,53.989,0,0,0,7.981-7.1c2.136-2.34,4.834-5.187,4.348-8.566" transform="translate(17.478 7.861)" fill="#473a69"/>
        <path id="Path_23951" data-name="Path 23951" d="M62.555,18.727a16.979,16.979,0,0,0-4.976,3.946c-1.573,1.579-3.175,3.131-4.837,4.618-1.616,1.449-3.3,2.821-5.019,4.147-.837.646-1.674,1.278-2.5,1.944A10.7,10.7,0,0,0,43,35.428a.192.192,0,0,0,.164.286c1.994-.068,4.113-1.481,5.725-2.548a56.362,56.362,0,0,0,5.234-4.01c1.7-1.441,3.35-2.948,4.966-4.486a16.342,16.342,0,0,0,4.181-5.227.529.529,0,0,0-.717-.717" transform="translate(18.268 7.934)" fill="#473a69"/>
        <path id="Path_23952" data-name="Path 23952" d="M96.143,41.3c-2.391-1.414-5.45-1.191-8.1-1.794a14.45,14.45,0,0,1-6.557-3.357,28.109,28.109,0,0,1-4.473-5.4c-1.263-1.909-2.21-4.385-3.879-5.966a.561.561,0,0,0-.949.39c.185,2.438,1.733,5.009,2.9,7.106a23.338,23.338,0,0,0,4.8,6.179,17.331,17.331,0,0,0,7.371,3.89c2.773.688,6.263,1.137,8.883-.251a.464.464,0,0,0,0-.8" transform="translate(30.685 10.468)" fill="#473a69"/>
        <path id="Path_23953" data-name="Path 23953" d="M89.609,33.747a4.2,4.2,0,0,0-1.635-1.325c-.331-.181-.66-.369-.983-.567a4.854,4.854,0,0,1-.871-.7,16,16,0,0,0-2.074-1.26,20.57,20.57,0,0,1-1.838-1.318,29.378,29.378,0,0,1-3.435-3.166c-.506-.561-.979-1.151-1.455-1.737-.418-.513-1.325-1.526-1.174-2.244.026-.135-.123-.292-.257-.2-1.545,1.09-.228,3.228.53,4.433a22.574,22.574,0,0,0,3.416,4.261A21.482,21.482,0,0,0,84.285,33.2a9.092,9.092,0,0,0,1.5.475q.581.205,1.173.378a3.779,3.779,0,0,0,2.551.088.287.287,0,0,0,.1-.39" transform="translate(31.955 9.012)" fill="#473a69"/>
        <path id="Path_23954" data-name="Path 23954" d="M86.89,27.476a7.883,7.883,0,0,0-1.022-1.092,4.287,4.287,0,0,0-.794-.788c-.362-.315-.74-.608-1.094-.933-.7-.637-1.439-1.218-2.111-1.887-1.31-1.307-2.54-2.7-3.765-4.085-.134-.151-.356.013-.319.185a12.393,12.393,0,0,0,3.189,5.771c1.458,1.58,3.447,3.155,5.683,3.235a.271.271,0,0,0,.232-.406" transform="translate(33.065 7.918)" fill="#473a69"/>
        <path id="Path_23955" data-name="Path 23955" d="M65.329,43.567a7.553,7.553,0,0,0-2.886-.188,7.706,7.706,0,0,0-2.926.958c-.9.522-2.175,1.418-1.786,2.608a.851.851,0,0,0,.787.6,1.775,1.775,0,0,0,1.4-.6l.16-.135c.014-.009.161-.12.17-.125.152-.1.311-.2.472-.291s.3-.152.449-.219l.18-.068c.088-.031.177-.06.266-.087.178-.056.359-.1.543-.14.091-.02.184-.036.275-.053l.06-.013.061,0a7.943,7.943,0,0,1,1.12-.016c.091.006.182.016.274.026l.118.021c.182.037.363.077.543.127s.366.115.546.185c.027.011.057.026.087.04l.248.125c.164.085.328.174.5.252a1.61,1.61,0,0,0,.713.207l.322-.043c-.171.02-.188.026-.053.016a1,1,0,0,0,.942-1.238c-.214-1.154-1.56-1.676-2.581-1.947" transform="translate(24.511 18.41)" fill="#2c2753"/>
        <path id="Path_23956" data-name="Path 23956" d="M81.028,45.085a6.7,6.7,0,0,0-4.4-1.864,7.674,7.674,0,0,0-2.3.192c-.718.17-1.744.529-1.987,1.3l-.051.074a.73.73,0,0,0,.627,1.092h.019c.6.2,1.371-.162,1.937-.281l.219-.041c.027-.006.043-.007.061-.01q.233-.028.47-.038a7.848,7.848,0,0,1,.951.028l.063.007c.061.009.121.019.182.03.147.027.292.06.436.1a8.076,8.076,0,0,1,.9.3c.027.01.157.068.148.063l.131.061c.133.066.264.137.392.212.288.168.552.372.828.557a1.126,1.126,0,0,0,1.459-.292,1.142,1.142,0,0,0-.088-1.485" transform="translate(30.686 18.36)" fill="#2c2753"/>
        <path id="Path_23957" data-name="Path 23957" d="M64.269,51.894c0-.249-.011-.5-.02-.745a2.524,2.524,0,0,0-1.03-2.24c-3.155-1.872-4.265,3.262-2.91,5.2a1.925,1.925,0,0,0,.733.618,2.316,2.316,0,0,0,1.029.237c1.639,0,2.212-1.662,2.2-3.074" transform="translate(25.396 20.614)" fill="#2c2753"/>
        <path id="Path_23958" data-name="Path 23958" d="M78.169,52.384c0-.249-.011-.5-.02-.745a2.527,2.527,0,0,0-1.03-2.24c-3.155-1.872-4.265,3.262-2.91,5.2a1.914,1.914,0,0,0,.733.618,2.316,2.316,0,0,0,1.029.237c1.639,0,2.212-1.662,2.2-3.074" transform="translate(31.305 20.822)" fill="#2c2753"/>
        <path id="Path_23959" data-name="Path 23959" d="M71.856,54.77a1.411,1.411,0,0,0-.637.155,1.489,1.489,0,0,0-.219.155l-.051.033c-.081.057-.165.108-.251.157-.043.024-.087.048-.131.07-.02.011-.1.046-.1.044-.054.02-.108.036-.162.054-.094.033-.185.068-.279.1s-.19.053-.285.073l-.054.006-.033,0a.205.205,0,0,0-.057.014l.023-.01-.016,0c-.1.006-.2.007-.294,0-.048,0-.1,0-.147-.009l-.076-.01-.044-.009c-.048-.01-.1-.021-.144-.033-.108-.027-.211-.061-.316-.1l-.054-.019c-.071-.03-.143-.061-.215-.087l-.135-.044-.05-.017a1.922,1.922,0,0,0-.718-.247.546.546,0,0,0-.539.539,1.328,1.328,0,0,0,.408.861,2.447,2.447,0,0,0,.65.566,4.179,4.179,0,0,0,1.674.544,3.262,3.262,0,0,0,1.613-.207,4.112,4.112,0,0,0,.831-.433,2.143,2.143,0,0,0,.475-.409,1.372,1.372,0,0,0,.291-.791.968.968,0,0,0-.961-.96" transform="translate(28.429 23.277)" fill="#de9c83"/>
        <path id="Path_23960" data-name="Path 23960" d="M68.87,55.363c.023-.009-.023-.011-.067.01l.034,0,.033-.006" transform="translate(29.249 23.526)" fill="#de9c83"/>
        <path id="Path_23961" data-name="Path 23961" d="M60.661,54.593a2.964,2.964,0,0,0-2.1-1.663,6.468,6.468,0,0,0-2.438-.034,4.463,4.463,0,0,0-2.149,1.066,2.056,2.056,0,0,0-.449,2.527,2.927,2.927,0,0,0,1.166,1.069,4.532,4.532,0,0,0,2.379.55,6.106,6.106,0,0,0,1.985-.383,2.528,2.528,0,0,0,1.777-2.42,2.19,2.19,0,0,0-.168-.711" transform="translate(22.646 22.438)" fill="#d37776"/>
        <path id="Path_23962" data-name="Path 23962" d="M82.636,55.2a2.5,2.5,0,0,0-1.767-1.4,5.441,5.441,0,0,0-2.048-.028,3.757,3.757,0,0,0-1.807.9,1.723,1.723,0,0,0-.376,2.122,2.442,2.442,0,0,0,.979.9,3.8,3.8,0,0,0,2,.462,5.176,5.176,0,0,0,1.669-.321A2.127,2.127,0,0,0,82.777,55.8a1.812,1.812,0,0,0-.141-.6" transform="translate(32.489 22.819)" fill="#d37776"/>
        <path id="Path_23963" data-name="Path 23963" d="M72.7,60.7a5.87,5.87,0,0,0-2.34.191,6.251,6.251,0,0,1-1.189,0,7.759,7.759,0,0,1-1.362-.319,1.88,1.88,0,0,0-.177-.067c.071.03.143.06.212.091-.128-.056-.257-.11-.386-.164a2.327,2.327,0,0,0-.549-.094c.006,0,0-.006-.048-.017a2.4,2.4,0,0,0-.4-.047,1.229,1.229,0,0,0-1.062.584,1.671,1.671,0,0,0,.073,1.691,2.913,2.913,0,0,0,1.053,1.073,5.448,5.448,0,0,0,2.042.9c1.7.349,4.123.366,5.17-1.277A1.747,1.747,0,0,0,72.7,60.7" transform="translate(27.716 25.617)" fill="#fff"/>
        <path id="Path_23964" data-name="Path 23964" d="M52.891,131.52a38.816,38.816,0,0,0-1.455-8.684,51.691,51.691,0,0,1-1.844-9.366,27.148,27.148,0,0,1,.063-4.211c.145-1.562.691-3.136.507-4.707-.034-.3-.43-.573-.677-.281-1.588,1.882-1.761,5.006-1.932,7.39a30.752,30.752,0,0,0,.755,8.812c.285,1.305.607,2.606.909,3.913a.936.936,0,0,0-.124.009,23.018,23.018,0,0,0-2.51,1.16,11.546,11.546,0,0,1-2.541.589c-2.273.221-4.53.57-6.8.864-4.538.584-9.092.919-13.648,1.317-1.348.118-1.4,2.16,0,2.137a134.686,134.686,0,0,0,14.931-1.241c2.239-.289,4.415-.674,6.612-1.15,1.3-.281,3.452-.72,4.473-1.842a30.129,30.129,0,0,1,.532,3.517c.222,2.745-.705,5.518-.244,8.2a.511.511,0,0,0,.747.3c2.139-1.482,2.3-4.311,2.249-6.723" transform="translate(9.591 44.261)" fill="#c5d3df"/>
        <path id="Path_23965" data-name="Path 23965" d="M95.065,80.865a1.214,1.214,0,0,0-1.773-.721c-1.719,1.2-2.475,3.306-3.732,4.936a16.011,16.011,0,0,1-4.865,4.479,22.762,22.762,0,0,1-13.206,2.977,33.433,33.433,0,0,1-14.5-4.818,27.247,27.247,0,0,1-5.927-4.594A21.484,21.484,0,0,1,48.5,79.859a14.234,14.234,0,0,0-1.927-3.025A.932.932,0,0,0,45,77.485c.023,2.454,2.363,5.228,3.876,7.035a28.192,28.192,0,0,0,6.2,5.352,34.78,34.78,0,0,0,16.412,5.79A24.83,24.83,0,0,0,86.7,92.023,26.825,26.825,0,0,0,92.309,87.5c1.531-1.784,3.312-4.167,2.756-6.632" transform="translate(19.129 32.548)" fill="#c5d3df"/>
        <path id="Path_23966" data-name="Path 23966" d="M98.807,93.087a1.619,1.619,0,0,0-.416-.714l-.326-.252a1.611,1.611,0,0,0-.817-.221,1.216,1.216,0,0,0-.623.14,1.229,1.229,0,0,0-.52.333,1.2,1.2,0,0,0-.333.522,1.211,1.211,0,0,0-.14.621c.019.144.038.288.057.43a1.632,1.632,0,0,0,.416.714l.328.252a1.606,1.606,0,0,0,.815.221,1.217,1.217,0,0,0,.623-.14,1.2,1.2,0,0,0,.52-.333,1.218,1.218,0,0,0,.335-.52,1.236,1.236,0,0,0,.14-.624c-.02-.142-.038-.285-.058-.429" transform="translate(40.653 39.056)" fill="#473a69"/>
        <path id="Path_23967" data-name="Path 23967" d="M98.725,96.965a2.034,2.034,0,0,0-.839-1.092l-.436-.184a1.839,1.839,0,0,0-.97,0l-.438.184a1.837,1.837,0,0,0-.654.655l-.184.436a1.372,1.372,0,0,0-.037.678,1.236,1.236,0,0,0,.056.355l0,.01a1.343,1.343,0,0,0,.093.221l.068.16,0,0a2.193,2.193,0,0,0,.268.348l.007.006c.009.009.339.264.349.269l0,0a1.335,1.335,0,0,0,.5.2l-.041-.006c.014,0,.03,0,.044.006.121.023.252.036.412.056.011,0,.021,0,.031,0,.162-.021.325-.043.486-.066a1.37,1.37,0,0,0,.621-.326,1.885,1.885,0,0,0,.654-1.919" transform="translate(40.445 40.64)" fill="#473a69"/>
        <path id="Path_23968" data-name="Path 23968" d="M100.858,95.113a1.416,1.416,0,0,0-.359-.617l-.284-.218a1.394,1.394,0,0,0-.705-.191,1.349,1.349,0,0,0-1.277.859,1.06,1.06,0,0,0-.12.539c.016.124.033.248.05.37a1.381,1.381,0,0,0,.359.617l.282.218a1.38,1.38,0,0,0,.705.191,1.061,1.061,0,0,0,.539-.12,1.049,1.049,0,0,0,.45-.289,1.543,1.543,0,0,0,.409-.988Z" transform="translate(41.708 39.986)" fill="#473a69"/>
        <path id="Path_23970" data-name="Path 23970" d="M103.247,57.875a2.483,2.483,0,0,0-.636-1.092l-.5-.388a2.465,2.465,0,0,0-1.248-.338,2.542,2.542,0,0,0-2.474,2.475c.029.218.058.437.088.657a2.469,2.469,0,0,0,.636,1.092c.167.13.335.258.5.386a2.452,2.452,0,0,0,1.248.339,2.542,2.542,0,0,0,2.474-2.474c-.03-.219-.058-.439-.088-.658" transform="translate(49.437 16.787)" fill="#fff"/>
        <path id="Path_23971" data-name="Path 23971" d="M112.039,57.875a2.469,2.469,0,0,0-.636-1.092l-.5-.388a2.465,2.465,0,0,0-1.248-.338,2.542,2.542,0,0,0-2.474,2.475c.028.218.058.437.088.657a2.469,2.469,0,0,0,.636,1.092l.5.386a2.448,2.448,0,0,0,1.248.339,2.542,2.542,0,0,0,2.474-2.474c-.03-.219-.058-.439-.088-.658" transform="translate(53.174 16.787)" fill="#fff"/>
        <path id="Path_23972" data-name="Path 23972" d="M120.832,57.875a2.5,2.5,0,0,0-.636-1.092c-.17-.13-.335-.258-.5-.388a2.466,2.466,0,0,0-1.25-.338,2.39,2.39,0,0,0-2.262,1.522,1.885,1.885,0,0,0-.212.953c.03.218.058.437.09.657a2.48,2.48,0,0,0,.634,1.092c.167.13.336.258.5.386a2.456,2.456,0,0,0,1.248.339,2.542,2.542,0,0,0,2.474-2.474c-.029-.219-.057-.439-.087-.658" transform="translate(56.912 16.787)" fill="#fff"/>
      </g>
    </g>
    <g id="Group_75716" data-name="Group 75716" transform="translate(245 276.713)">
      <rect id="Rectangle_4715" data-name="Rectangle 4715" width="113" height="34" rx="17" fill="#ffd586"/>
      <g id="Group_75699" data-name="Group 75699" transform="translate(33 4)">
        <text id="Invite" transform="translate(23 18)" font-size="17" font-family="Poppins-Medium, Poppins" font-weight="500"><tspan x="-23.307" y="0">Invite</tspan></text>
      </g>
    </g>
  </g>
</svg>
