<?xml version="1.0" encoding="UTF-8"?>
<svg id="Layer_1" xmlns="http://www.w3.org/2000/svg" version="1.1" viewBox="0 0 263 244">
  <!-- Generator: Adobe Illustrator 30.0.0, SVG Export Plug-In . SVG Version: 2.1.1 Build 123)  -->
  <defs>
    <style>
      .st0 {
        fill: none;
      }

      .st1 {
        fill: #b5d9f1;
      }

      .st2 {
        fill: #473a69;
      }

      .st3 {
        font-family: Poppins-Medium, Poppins;
        font-size: 17px;
        font-weight: 500;
      }

      .st3, .st4 {
        isolation: isolate;
      }

      .st5 {
        fill: #e7b8a7;
      }

      .st6 {
        fill: #de9c83;
      }

      .st7 {
        fill: #fff;
      }

      .st8 {
        fill: #c5d3df;
      }

      .st9 {
        fill: #2c2753;
      }

      .st10 {
        fill: #ffd586;
      }

      .st11 {
        fill: #d37776;
      }

      .st12 {
        fill: #ff385c;
      }

      .st13 {
        fill: #ed153b;
      }
    </style>
  </defs>
  <path class="st12" d="M186.8,139.2c-6.2-18.4-24-30.8-26.8-50.6-2.8-20-1.4-37.2-15.8-53.2-8.7-9.5-20-16.1-32.6-18.9-18.3-4.3-38.2-.7-52.8,12.2-14.8,13.1-11.6,33.9-24.4,49C18.8,96,4.6,109.8,1,135.2c-3.8,26.4,3,50,19.7,71,7.2,9.1,17.6,15.6,29,20,9.8-17.7,10.4-60.8,10.4-60.8-8.4,5.6-27,4-27,4,0,0-4.1-18.7,1.2-33.2,5.4-14.5,18.3-28.6,30.5-30.8l17.1,4,31.7.3c15.8,2.5,27.7,20.2,27.7,20.2l-9,32.9c-3.8,17.6.9,47,3.7,61.8,16.2-7,30.8-17.8,40.7-32,10.9-15.5,16.3-35.3,10.2-53.5Z"/>
  <g>
    <path class="st13" d="M147.5,123.6c-.3,0-.6-.1-.8-.1l-11.1-.4c3.6,3.8,5.7,6.9,5.7,6.9l-9,32.9c-1.7,7.8-1.7,18-1,28.2,6.3,4.2,16.7,1.9,17.1-9.3.2-5.6-3.1-12.6-6.6-18.4l8.7-34.8c.5-2.2-.8-4.4-3-4.9Z"/>
    <path class="st13" d="M49.7,226.2c9.8-17.7,10.4-60.8,10.4-60.8-8.4,5.6-27,4-27,4,0,0-4.1-18.7,1.2-33.2,5.4-14.5,18.3-28.6,30.5-30.8l17.1,4,25.4.2c0-.2,0-.4,0-.6-.1-.5-.6-.8-1.1-.9,12.2-3.1,18.3-8.1,19.4-17,1.9-14.9-4.3-16.7-3.7-37,.5-15.5-3.8-31.3-15.8-38.8-16.6-2.3-34,1.7-47.1,13.2-9.2,8.1-11.4,19.2-14.9,30.1-.9,16.1-8.4,23.2-3,33.1,3.3,6,8.3,10.9,14.4,14.1-11.4,3.4-23,16.6-28.1,30.2-4.6,12.5-2.2,28.2-1.4,32.2-.6.2-.9.8-.7,1.3.1.4.5.7,1,.7,1.2,0,2.3,0,3.5-.1.7,5.4,2.3,14.5,5.1,18.7,2.8,6.3,8.4,10.9,15.2,12.3-1.4,8.3-3.3,16.4-6,22.4,1.9.9,3.8,1.7,5.8,2.5ZM105.4,108.5c-.2.2-.4.3-.6.5h0c-.2,0-.3-.2-.5-.3.4,0,.8-.2,1.2-.3Z"/>
  </g>
  <rect class="st0" x="0" y="-4.2" width="203.3" height="244"/>
  <path id="Path_23922" class="st1" d="M175.8,86.8h0,0s0,0,0,0Z"/>
  <path id="Path_23923" class="st9" d="M185.5,77.1c-.1-.4-.3-.8-.4-1.2-.2-.5-.4-1.1-.7-1.6-.2-.5-.4-.9-.8-1.3v-12c0-2.1-1.7-3.7-3.7-3.7h-33.6c-2.1,0-3.7,1.7-3.7,3.7v13.7c0,2.1,1.7,3.7,3.7,3.7h33.4c.5.3,1.1.5,1.7.6l1.6.5h0c0,.1.2.2.3.2h0s0,0,0,0h0s0,0,0,0h0c.2,0,.2,0,0,0,.7.3,1.4.1,1.8-.5.2-.3.3-.7.3-1.1,0-.4,0-.7,0-1.1"/>
  <path id="Path_23925" class="st9" d="M100.8,13.5c0,9.8-7.9,17.7-17.7,17.7-9.8,0-17.7-7.9-17.7-17.7,0-9.8,7.9-17.7,17.7-17.7,9.8,0,17.7,7.9,17.7,17.7h0"/>
  <path id="Path_23926" class="st9" d="M99.3,11.2c-34.1-2.7-47.9,27.9-48.2,45.5s-8.7,24.9-3.1,35.2,19.6,21.9,45.4,19.4,37.6-7.3,39.2-20c1.9-14.9-4.4-16.7-3.7-37s-6.8-41.3-29.5-43.1"/>
  <path id="Path_23927" class="st5" d="M141.1,152.3s14.8,17.8,14.3,29.4c-.5,11.6-11.8,13.7-17.9,8.7s-8-28.5-9.3-30.3,12.9-7.9,12.9-7.9"/>
  <path id="Path_23928" class="st5" d="M36.2,166s1.6,16.8,5.6,23,22.7-2.2,22.7-2.2c0,0,3.1-15.8,2.2-19.3s-5-10.3-7.5-9.9-23,8.4-23,8.4"/>
  <path id="Path_23930" class="st9" d="M132.4,126.1l-8.2,40.1c-.5,2.2,1,4.4,3.2,4.8.3,0,.7,0,1,0l15.7-.7c1.8,0,3.3-1.3,3.8-3.1l9.7-38.8c.5-2.2-.8-4.4-3-4.9-.3,0-.5-.1-.8-.1l-17.2-.7c-2,0-3.7,1.3-4.2,3.2"/>
  <path id="Path_23931" class="st5" d="M80.9,90.8s0,5.6-3.4,9.6-12.7,5-12.7,5c0,0,9.8,17.7,27.3,17.1,19-.6,21.4-12.7,21.4-12.7,0,0-10.9-3.1-11.2-17.7l-14.6-1.6-6.8.3Z"/>
  <path id="Path_23932" class="st5" d="M114.5,160.4s-65.9,25.8-72.7,28.6c0,0,5.9,16.5,28.6,12.4s48.2-26.7,52.8-30.1,23.6-12.4,24.5-15.2c.6-1.5.8-3.1.6-4.7,0,0,2.5-3.1-1.6-5,0,0,1.6-5-4.4-4.4s-13.7,9-13.7,9c0,0,3.7-9.3.6-9.6s-4.7,6.8-7.5,10.6-4.4,5.9-7.5,8.4"/>
  <path id="Path_23933" class="st6" d="M103.4,98.8c-.5-1.7-.9-3.5-1-5.3l-4.1-1.8-10.6-1.1-6.8.3s0,5.6-3.4,9.6c-1.1,1.2-2.5,2.2-4.1,2.8,4.7,3,11.5,4,16.2,3.4,3.8-.5,10.6-3.9,13.8-7.8"/>
  <path id="Path_23934" class="st5" d="M69.2,60.1s-7.2-.7-7.5,5.6c-.3,7.5,6.2,7.8,6.2,7.8,0,0,3.7,25.8,26.6,25.8s24.5-39.5,24.5-39.5c0,0-15.2-10.6-20.8-20.8,0,0-14.8,19.3-29.1,21.1"/>
  <path id="Path_23935" class="st6" d="M68.5,66.7c0-.3-.1-.6-.3-.8h0c-.2-.5-.5-.9-.8-1.2-.4-.4-.8-.8-1.3-1-.6-.3-1.3-.4-1.9-.2-.3.2-.4.6-.2.9,0,0,.1.2.2.2.3.1.6.2.9.3h0c0,0,.1.1.2.1,0,0,0,0,.2,0h0s0,0,0,0c.1,0,.2.2.3.3,0,0,.1.1.2.2h0s0,0,0,0c0,0,0,.1.1.2-.2.1-.4.3-.5.5-.3.3-.5.7-.7,1.1-.3.8,0,1.7.8,2.1.4.2.8.2,1.2,0,.2,0,.3-.1.5-.2,0,0,0,0,0,0,0,0,.1,0,.2,0,.6-.4.9-1.1.9-1.8,0-.3,0-.6-.1-.9"/>
  <path id="Path_23936" class="st6" d="M82,173.5c-3,0-5.8,1.1-8.6,2.1-2.7,1-5.5,2-8.1,3.1-2.6,1.1-5.1,2.3-7.6,3.5-2.5,1.2-5.6,2.6-7.5,4.6-.2.2-.2.5,0,.6.1.1.3.1.4.1,2.6-.5,5.2-2.1,7.6-3.3,2.7-1.3,5.5-2.5,8.2-3.6,2.7-1.1,5.4-2.1,8.1-3.1,2.6-.9,5.4-1.6,7.7-3,.3-.2.4-.5.2-.8-.1-.2-.3-.3-.5-.3"/>
  <path id="Path_23937" class="st6" d="M145.2,145.4c-1,.4-1.9,1-2.8,1.7-1,.6-1.9,1.2-2.9,1.8-.9.6-1.9,1.1-2.9,1.7-.5.3-1,.5-1.4.8-.2.1-.5.3-.7.4-.2.2-.4.4-.6.7,0,.1,0,.3,0,.4,0,0,.1,0,.2,0,.5,0,1.1,0,1.6-.3.5-.2,1-.4,1.5-.7,1-.5,2.1-1.1,3.1-1.7,1-.6,1.9-1.2,2.9-1.9,1-.6,1.9-1.3,2.6-2.2.1-.2,0-.5-.2-.6-.1,0-.2,0-.3,0"/>
  <path id="Path_23938" class="st6" d="M147.1,150.2c-.5,0-1,.2-1.4.6-.5.3-.9.7-1.4,1-1,.7-2,1.3-3,1.9-2,1.2-4.1,2-5.9,3.5-.1.1-.1.3,0,.5,0,0,.1,0,.2,0,2.4-.2,4.5-1.5,6.5-2.7,1-.6,2-1.3,3-2,.5-.3.9-.7,1.3-1.1.5-.3.9-.8,1-1.3,0-.2,0-.4-.2-.4,0,0,0,0,0,0"/>
  <path id="Path_23939" class="st2" d="M125.6,62.5c-1-1-2.1-1.7-3.4-2.3-1.3-.6-2.6-1.3-3.8-2.1-2.5-1.5-4.9-3.3-7.1-5.4-2.1-2-4.2-4.2-6.1-6.4-1-1.2-2-2.4-2.9-3.6-.9-1.3-1.8-2.5-2.8-3.6-.2-.2-.4-.3-.6-.3-.2-.3-.5-.3-.8-.2,0,0,0,0,0,0-1.3,1.2-2.5,2.5-3.5,4-1.2,1.5-2.4,2.9-3.8,4.2-5.5,5.3-12.4,9.1-19.8,10.9-1.9.5-3.8.8-5.7,1.1-1.9.2-3.9.1-5.8.5-.4.1-.6.6-.5,1,0,.2.3.4.5.5,3.5,1,8.1.3,11.6-.5,4-.9,7.8-2.4,11.4-4.3,3.5-1.9,6.8-4.2,9.7-7,1.5-1.4,2.8-2.9,4.1-4.5.7-.9,1.4-1.8,2-2.8.6,1,1.3,1.9,2,2.7.9,1.2,1.8,2.5,2.8,3.6,2,2.5,4.2,4.8,6.5,7,2.2,2,4.6,3.9,7.1,5.4,1.3.8,2.6,1.5,4,2.2,1.3.7,2.8,1.1,4.3,1,.4,0,.7-.4.7-.8,0-.2,0-.4-.2-.5"/>
  <path id="Path_23940" class="st2" d="M58.7,64.7c0-.5-.4-.9-.9-.9-.2,0-.4,0-.6.3-.9.9-.9,2.1-1.1,3.2-.3,1.6-.6,3.1-1.1,4.6-.9,3-1.9,6-2.5,9.1-.6,2.7-.8,5.4-.5,8.1.1,1.4.4,2.7,1,4,.6,1.2,1.5,2.2,2.7,2.8.6.5,1.4-.3,1.2-.9-.1-.6,0-1.2-.2-1.9-.1-.6-.3-1.2-.5-1.8-.3-1.1-.5-2.2-.6-3.3-.1-2.5.1-5,.7-7.4.6-2.8,1.4-5.5,1.9-8.2.2-1.2.4-2.5.5-3.7.1-1.3,0-2.5,0-3.8"/>
  <path id="Path_23941" class="st2" d="M65.6,92.5c0-1.5,0-3-.1-4.5,0-1.4-.1-2.7,0-4.1,0-.6.1-1.3.2-1.9,0-.4,0-1-.5-1.1-1.2-.3-1.9,1.6-2.2,2.5-.4,1.4-.6,2.9-.6,4.4-.1,1.6-.2,3.2-.1,4.8s.1,3.3,1.4,4.4c.3.2.7.2.9,0,1.2-1.2,1.2-2.8,1.1-4.4"/>
  <path id="Path_23942" class="st2" d="M71.1,94.9c0-.7,0-1.5-.2-2.2-.1-.4-.5-.6-.9-.5-.1,0-.2,0-.3.2-.3.3-.6.6-.7,1-.2.5-.4,1.1-.4,1.6,0,.5,0,.9.2,1.4,0,.3.2.5.4.8,0,.1.2.2.3.2h0s.2.2.2.2c.3.3.8.3,1,0,0,0,.1-.2.2-.3,0,0,0-.2,0-.3,0-.1.1-.3.2-.4,0-.2,0-.5,0-.7,0-.3,0-.7,0-1"/>
  <path id="Path_23943" class="st2" d="M127,84.6c-.3-2.9-.6-5.9-1.1-8.8-.5-2.7-.9-6.1-2.4-8.4,0,0-.2-.1-.3,0,0,0,0,0,0,.1-.6,2.4,0,5,0,7.5,0,2.7.2,5.4.2,8.1,0,4.4,0,9.3-2,13.3-.7,1.3-2.3,4-.3,4.9,2.1,1,3.7-1.9,4.4-3.4,1.8-4.2,2-8.8,1.6-13.3"/>
  <path id="Path_23944" class="st2" d="M118.6,95.7c0-1.1-.2-2.2-.5-3.3-.2-.6-.9-2.9-1.9-2-.3.3-.4.8-.4,1.2,0,.5,0,.9-.1,1.4,0,.9,0,1.9-.2,2.8,0,.5,0,.9-.1,1.4,0,.2,0,.2,0,0,0,0,0,.2,0,.2,0,.1,0,.3,0,.4,0,.3-.1.6-.2.9,0,.2,0,.3,0,.5,0-.2,0-.2,0,0,0,.2,0,.4,0,.5,0,.6.5,1.2,1.1,1.2,0,0,.2,0,.3,0,0,0,.1,0,.2,0,.2,0,.4,0,.6-.2.2-.1.4-.3.6-.5.4-.4.7-.9.8-1.5.3-1,.3-2.1.2-3.2"/>
  <path id="Path_23945" class="st2" d="M112.4,97.9c-.1-.4-.5-.7-.9-.7-.4,0-.8.3-.9.7,0,.1,0,.3-.1.4,0,.2-.1.5-.1.7v-.3c0,.3,0,.6-.2.9,0,.2,0,.3,0,.5,0,.2,0,.3,0,.5,0,.1,0,.3,0,.4,0,0,0-.2,0-.3,0,.2,0,.4.1.6,0,.1.2.2.3.3.3.2.8.2,1.1,0,.3-.1.5-.4.7-.6.1-.2.2-.4.3-.7,0-.4.2-.8.2-1.2,0-.4,0-.8-.2-1.2"/>
  <path id="Path_23946" class="st2" d="M98.8,11.3c-.9-.4-1.8-.8-2.8-1.1-1.2-.2-2.5-.2-3.7.1-2.8.4-5.5,1-8.2,1.9-2.5.8-5,1.8-7.4,3-2.3,1.2-5,2.5-6.7,4.6-.4.5,0,1.4.7,1.2,2.4-.8,4.5-2.3,6.8-3.3,2.5-1.2,5.1-2.2,7.7-3,2.5-.8,5.1-1.3,7.8-1.7.7-.1,1.4-.2,2.1-.1.6.1,1,.4,1.6.5.8.3,1.8,0,2.3-.8.2-.4.1-.9-.3-1.2"/>
  <path id="Path_23947" class="st2" d="M87.2.2c-.7-.7-1.8-1.1-2.8-1-1.1,0-2.2.1-3.3.4-1,.2-2,.5-3,.8-1,.4-2.6.8-2.7,2.1,0,.3.2.6.4.7.9.5,2.1-.3,3-.6.9-.3,1.9-.6,2.8-.8.9-.2,1.9-.3,2.8-.3,1,0,2-.2,2.8-.8.1-.1.2-.3,0-.5"/>
  <path id="Path_23948" class="st2" d="M93.3,7c-1.2-1.4-3.9-1.1-5.6-1-2.2.1-4.4.5-6.5,1-2.1.5-4.1,1.2-6,2.1-1.8.8-4.1,1.8-5.3,3.4-.4.5.3,1.2.8,1.1.9-.3,1.8-.7,2.6-1.3.9-.5,1.8-.9,2.7-1.3,1.9-.8,3.9-1.5,5.9-2,2-.5,4.1-.8,6.1-.9,1.6,0,3.8.3,5.2-.7.1-.1.1-.3,0-.4"/>
  <path id="Path_23949" class="st2" d="M97.3,29.3c-.7.6-1.5.9-2.2,1.5-.8.7-1.5,1.4-2.2,2.1-1.3,1.5-2.5,3-3.9,4.4-2.8,2.9-5.9,5.5-9.3,7.7-3.3,2.2-6.9,4-10.5,5.4-1.9.7-3.9,1.3-5.8,2s-4,1-5.8,1.8c-.3.1-.4.6,0,.6,3.8.9,8.3,0,12.1-1.1,4.2-1.2,8.2-2.9,11.9-5.2,3.7-2.2,7.1-4.9,10.1-7.9,1.5-1.5,2.9-3.1,4.2-4.9.6-.8,1.1-1.7,1.5-2.6.3-1.1.6-2.2.7-3.4,0-.3-.3-.8-.7-.5"/>
  <path id="Path_23950" class="st2" d="M90.8,22.4c0-.3-.5-.3-.7-.2-1.1,1-2.1,2.2-2.9,3.5-1,1.4-2,2.7-3.2,3.9-2.3,2.5-4.9,4.8-7.7,6.7-2.7,1.9-5.5,3.5-8.5,4.9-3,1.5-6.3,2.3-9,4.2-.1,0-.2.3-.1.4,0,0,.2.2.3.2,3.5.4,6.8-1.1,9.9-2.4,3.4-1.5,6.6-3.4,9.6-5.6,2.9-2.1,5.6-4.5,8-7.1,2.1-2.3,4.8-5.2,4.3-8.6"/>
  <path id="Path_23951" class="st2" d="M80.8,22.4c-1.9,1-3.6,2.3-5,3.9-1.6,1.6-3.2,3.1-4.8,4.6-1.6,1.4-3.3,2.8-5,4.1-.8.6-1.7,1.3-2.5,1.9-.8.6-1.6,1.3-2.2,2,0,0,0,.2,0,.3,0,0,0,0,0,0,2,0,4.1-1.5,5.7-2.5,1.8-1.2,3.6-2.6,5.2-4,1.7-1.4,3.3-2.9,5-4.5,1.7-1.4,3.2-3.2,4.2-5.2.1-.3,0-.6-.2-.7-.2,0-.3,0-.5,0"/>
  <path id="Path_23952" class="st2" d="M126.8,47.5c-2.4-1.4-5.4-1.2-8.1-1.8-2.4-.5-4.7-1.7-6.6-3.4-1.7-1.6-3.2-3.4-4.5-5.4-1.3-1.9-2.2-4.4-3.9-6-.2-.2-.6-.2-.8,0,0,.1-.2.2-.2.4.2,2.4,1.7,5,2.9,7.1,1.2,2.3,2.9,4.4,4.8,6.2,2.1,1.9,4.6,3.2,7.4,3.9,2.8.7,6.3,1.1,8.9-.3.2-.1.3-.4.2-.6,0,0,0-.1-.2-.2"/>
  <path id="Path_23953" class="st2" d="M121.6,38.5c-.4-.6-1-1-1.6-1.3-.3-.2-.7-.4-1-.6-.3-.2-.6-.4-.9-.7-.7-.5-1.4-.9-2.1-1.3-.6-.4-1.2-.8-1.8-1.3-1.2-1-2.4-2-3.4-3.2-.5-.6-1-1.2-1.5-1.7-.4-.5-1.3-1.5-1.2-2.2,0-.1-.1-.3-.3-.2-1.5,1.1-.2,3.2.5,4.4,1,1.6,2.1,3,3.4,4.3,1.3,1.3,2.8,2.4,4.5,3.3.5.2,1,.4,1.5.5.4.1.8.3,1.2.4.8.3,1.7.4,2.6,0,.1,0,.2-.3,0-.4"/>
  <path id="Path_23954" class="st2" d="M120,31.1c-.3-.4-.6-.8-1-1.1-.2-.3-.5-.6-.8-.8-.4-.3-.7-.6-1.1-.9-.7-.6-1.4-1.2-2.1-1.9-1.3-1.3-2.5-2.7-3.8-4.1-.1-.2-.4,0-.3.2.5,2.2,1.6,4.2,3.2,5.8,1.5,1.6,3.4,3.2,5.7,3.2.1,0,.3-.1.3-.3,0,0,0,0,0-.1"/>
  <path id="Path_23955" class="st9" d="M89.8,57.7c-.9-.2-1.9-.3-2.9-.2-1,.1-2,.4-2.9,1-.9.5-2.2,1.4-1.8,2.6.1.3.4.6.8.6.5,0,1-.2,1.4-.6h.2c0-.1.2-.3.2-.3.2,0,.3-.2.5-.3s.3-.2.4-.2h.2c0,0,.2-.1.3-.2.2,0,.4,0,.5-.1,0,0,.2,0,.3,0h0s0,0,0,0c.4,0,.7,0,1.1,0,0,0,.2,0,.3,0h.1c.2,0,.4,0,.5.1s.4.1.5.2c0,0,0,0,0,0h.2c.2.2.3.3.5.4.2.1.5.2.7.2h.3c-.2,0-.2,0,0,0,.6,0,1-.5,1-1,0,0,0-.1,0-.2-.2-1.2-1.6-1.7-2.6-1.9"/>
  <path id="Path_23956" class="st9" d="M111.7,59.2c-1.2-1.1-2.8-1.8-4.4-1.9-.8,0-1.5,0-2.3.2-.7.2-1.7.5-2,1.3h0c-.2.4,0,.9.3,1.1.1,0,.2,0,.4,0h0c.6.2,1.4-.2,1.9-.3h.2s0,0,0,0c.2,0,.3,0,.5,0,.3,0,.6,0,1,0h0c0,0,.1,0,.2,0,.1,0,.3,0,.4,0,.3,0,.6.2.9.3,0,0,.2,0,.1,0h.1c.1.1.3.2.4.3.3.2.6.4.8.6.5.3,1.1.2,1.5-.3.3-.4.3-1.1,0-1.5"/>
  <path id="Path_23957" class="st9" d="M89.7,68.3c0-.2,0-.5,0-.7,0-.9-.3-1.7-1-2.2-3.2-1.9-4.3,3.3-2.9,5.2.2.3.4.5.7.6.3.2.7.2,1,.2,1.6,0,2.2-1.7,2.2-3.1"/>
  <path id="Path_23958" class="st9" d="M109.5,69c0-.2,0-.5,0-.7,0-.9-.3-1.7-1-2.2-3.2-1.9-4.3,3.3-2.9,5.2.2.3.4.5.7.6.3.2.7.2,1,.2,1.6,0,2.2-1.7,2.2-3.1"/>
  <path id="Path_23959" class="st6" d="M100.3,73.8c-.2,0-.4,0-.6.2,0,0-.2,0-.2.2h0c0,0-.2.1-.3.2,0,0,0,0-.1,0,0,0,0,0,0,0,0,0-.1,0-.2,0,0,0-.2,0-.3,0s-.2,0-.3,0h0s0,0,0,0c0,0,0,0,0,0h0s0,0,0,0c0,0-.2,0-.3,0,0,0,0,0-.1,0h0s0,0,0,0c0,0,0,0-.1,0-.1,0-.2,0-.3,0h0c0,0-.1,0-.2-.1h-.1s0,0,0,0c-.2-.1-.5-.2-.7-.2-.3,0-.5.2-.5.5,0,.3.2.6.4.9.2.2.4.4.7.6.5.3,1.1.5,1.7.5.5,0,1.1,0,1.6-.2.3-.1.6-.3.8-.4.2-.1.3-.3.5-.4.2-.2.3-.5.3-.8,0-.5-.4-1-1-1"/>
  <path id="Path_23960" class="st6" d="M98.1,74.6s0,0,0,0h0"/>
  <path id="Path_23961" class="st11" d="M83.3,72.8c-.4-.9-1.2-1.5-2.1-1.7-.8-.2-1.6-.2-2.4,0-.8.2-1.5.5-2.1,1.1-.7.6-.9,1.7-.4,2.5.3.5.7.8,1.2,1.1.7.4,1.6.6,2.4.5.7,0,1.3-.1,2-.4,1.1-.3,1.8-1.3,1.8-2.4,0-.2,0-.5-.2-.7"/>
  <path id="Path_23962" class="st11" d="M115.1,73.8c-.3-.7-1-1.2-1.8-1.4-.7-.1-1.4-.1-2,0-.7.1-1.3.4-1.8.9-.6.5-.8,1.4-.4,2.1.2.4.6.7,1,.9.6.3,1.3.5,2,.5.6,0,1.1-.1,1.7-.3.9-.3,1.5-1.1,1.5-2,0-.2,0-.4-.1-.6"/>
  <path id="Path_23963" class="st7" d="M100.4,82.1c-.8,0-1.6,0-2.3.2-.4,0-.8,0-1.2,0-.5,0-.9-.2-1.4-.3,0,0-.1,0-.2,0,0,0,.1,0,.2,0-.1,0-.3-.1-.4-.2-.2,0-.4,0-.5,0,0,0,0,0,0,0-.1,0-.3,0-.4,0-.4,0-.8.2-1.1.6-.3.5-.3,1.2,0,1.7.3.4.6.8,1.1,1.1.6.4,1.3.7,2,.9,1.7.3,4.1.4,5.2-1.3.5-.8.2-1.9-.7-2.4-.1,0-.3-.1-.4-.2"/>
  <path id="Path_23964" class="st8" d="M65.6,162.2c-.9-3.1-2.2-6-3.7-8.8-1.7-3-3.2-6.2-4.3-9.5-.4-1.5-.8-3-1-4.5-.2-1.7,0-3.5-.7-5.1-.1-.3-.6-.5-.8-.1-1.2,2.4-.6,5.8-.2,8.3.6,3.2,1.6,6.3,3,9.1.6,1.3,1.3,2.6,2,3.9,0,0,0,0-.1,0-.8.6-1.6,1.2-2.4,1.9-.8.5-1.7.9-2.5,1.3-2.4.8-4.7,1.8-7,2.6-4.7,1.8-9.4,3.3-14.1,4.9-1.4.5-.9,2.6.5,2.3,5.3-1.4,10.4-3.1,15.5-5.1,2.3-.9,4.5-1.8,6.7-2.9,1.3-.6,3.5-1.6,4.3-3.1.6,1.2,1,2.4,1.5,3.6.9,2.9.7,6,1.8,8.8.2.3.5.4.8.2,0,0,0,0,.1,0,1.9-2.1,1.3-5.2.7-7.7"/>
  <path id="Path_23965" class="st8" d="M114.2,109.2c-.2-.6-.9-1-1.5-.8,0,0-.2,0-.3.1-1.7,1.2-2.5,3.3-3.7,4.9-1.3,1.8-2.9,3.3-4.9,4.5-4,2.3-8.6,3.3-13.2,3-5.1-.5-10.1-2.1-14.5-4.8-2.2-1.3-4.2-2.8-5.9-4.6-1-1-1.8-2.1-2.6-3.3-.5-1.1-1.2-2.1-1.9-3-.4-.4-1-.3-1.3,0-.2.2-.2.4-.3.6,0,2.5,2.4,5.2,3.9,7,1.8,2.1,3.9,3.9,6.2,5.4,4.9,3.3,10.5,5.3,16.4,5.8,5.3.5,10.7-.8,15.2-3.6,2.1-1.2,4-2.8,5.6-4.5,1.5-1.8,3.3-4.2,2.8-6.6"/>
  <path id="Path_23966" class="st2" d="M139.5,127.9c0-.3-.2-.5-.4-.7l-.3-.3c-.2-.1-.5-.2-.8-.2-.2,0-.4,0-.6.1-.2,0-.4.2-.5.3-.2.1-.3.3-.3.5-.1.2-.1.4-.1.6,0,.1,0,.3,0,.4,0,.3.2.5.4.7l.3.3c.2.1.5.2.8.2.2,0,.4,0,.6-.1.2,0,.4-.2.5-.3.2-.1.3-.3.3-.5.1-.2.1-.4.1-.6,0-.1,0-.3,0-.4"/>
  <path id="Path_23967" class="st2" d="M139.2,133.4c-.1-.5-.4-.8-.8-1.1l-.4-.2c-.3,0-.7,0-1,0l-.4.2c-.3.2-.5.4-.7.7l-.2.4c0,.2,0,.5,0,.7,0,.1,0,.2,0,.4h0c0,0,0,.2,0,.2v.2h0c0,.1.2.2.3.3h0s.3.3.3.3h0c.2,0,.3.2.5.2h0s0,0,0,0c.1,0,.3,0,.4,0h0c.2,0,.3,0,.5,0,.2,0,.4-.2.6-.3.6-.5.8-1.2.7-1.9"/>
  <path id="Path_23968" class="st2" d="M142.6,130.9c0-.2-.2-.4-.4-.6l-.3-.2c-.2-.1-.5-.2-.7-.2-.6,0-1.1.3-1.3.9,0,.2-.1.4-.1.5,0,.1,0,.2,0,.4,0,.2.2.4.4.6l.3.2c.2.1.5.2.7.2.2,0,.4,0,.5-.1.2,0,.3-.2.4-.3.2-.3.4-.6.4-1v-.4Z"/>
  <path id="Path_23970" class="st7" d="M152.7,70.4c-.1-.4-.3-.8-.6-1.1l-.5-.4c-.4-.2-.8-.3-1.2-.3-1.4,0-2.4,1.1-2.5,2.5,0,.2,0,.4,0,.7.1.4.3.8.6,1.1.2.1.3.3.5.4.4.2.8.3,1.2.3,1.4,0,2.4-1.1,2.5-2.5,0-.2,0-.4,0-.7"/>
  <path id="Path_23971" class="st7" d="M165.2,70.4c-.1-.4-.3-.8-.6-1.1l-.5-.4c-.4-.2-.8-.3-1.2-.3-1.4,0-2.4,1.1-2.5,2.5,0,.2,0,.4,0,.7.1.4.3.8.6,1.1l.5.4c.4.2.8.3,1.2.3,1.4,0,2.4-1.1,2.5-2.5,0-.2,0-.4,0-.7"/>
  <path id="Path_23972" class="st7" d="M177.7,70.4c-.1-.4-.3-.8-.6-1.1-.2-.1-.3-.3-.5-.4-.4-.2-.8-.3-1.2-.3-1,0-1.9.6-2.3,1.5-.2.3-.2.6-.2,1,0,.2,0,.4,0,.7.1.4.3.8.6,1.1.2.1.3.3.5.4.4.2.8.3,1.2.3,1.4,0,2.4-1.1,2.5-2.5,0-.2,0-.4,0-.7"/>
  <g id="Group_75716">
    <path id="Rectangle_4715" class="st10" d="M167,91.5h79c9.4,0,17,7.6,17,17h0c0,9.4-7.6,17-17,17h-79c-9.4,0-17-7.6-17-17h0c0-9.4,7.6-17,17-17Z"/>
    <g id="Group_75699">
      <g id="Invite" class="st4">
        <text class="st3" transform="translate(182.7 113.5)"><tspan x="0" y="0">Invite</tspan></text>
      </g>
    </g>
  </g>
</svg>