<svg xmlns="http://www.w3.org/2000/svg" xmlns:xlink="http://www.w3.org/1999/xlink" width="150" height="150" viewBox="0 0 150 150">
  <defs>
    <clipPath id="clip-path">
      <rect id="Rectangle_13499" data-name="Rectangle 13499" width="150" height="150" transform="translate(-18203 -11275)" fill="#fff" stroke="#707070" stroke-width="1"/>
    </clipPath>
  </defs>
  <g id="Mask_Group_90962" data-name="Mask Group 90962" transform="translate(18203 11275)" clip-path="url(#clip-path)">
    <g id="Group_94808" data-name="Group 94808" transform="translate(-18386.975 -11629.652)">
      <g id="Group_83" data-name="Group 83" transform="translate(203.09 355.26)">
        <g id="Group_75" data-name="Group 75" transform="translate(0.269)">
          <path id="Path_129" data-name="Path 129" d="M257.832,443.61l35.41,32.7a110.325,110.325,0,0,0-11.8.06,15.3,15.3,0,0,1-13.49-5.3c-9.455-9.214-19.331-18.067-28.966-26.98a3.7,3.7,0,0,0-2.047-1.024c-6.023-.06-12.1-.06-18.85-.06l35.471,32.821c-.3.18-.422.422-.6.422-5.781,0-11.562.06-17.344,0a4.233,4.233,0,0,1-2.228-1.024c-8.13-7.467-16.32-14.875-24.33-22.462a12.353,12.353,0,0,1-3.493-13.67A12.711,12.711,0,0,1,216.58,430a19.6,19.6,0,0,1,3.252-.12h49.984a30.636,30.636,0,0,0,6.022-60.824,40.523,40.523,0,0,0-6.022-.422h-63.9c-.722,0-1.385-.06-2.288-.12V355.446c.722-.06,1.505-.121,2.228-.121,21.5,0,43.058-.181,64.558.06a42.611,42.611,0,0,1,37.457,20.837,43.856,43.856,0,0,1-14.152,60.342,43.075,43.075,0,0,1-17.525,6.2c-5.36.6-10.78.3-16.26.422h-2.108Z" transform="translate(-203.622 -355.26)" fill="#ff395c"/>
          <path id="Path_130" data-name="Path 130" d="M203.743,455.263a24.454,24.454,0,0,1,20.174-26.618,36.772,36.772,0,0,1,5.179-.362h40.71a4.575,4.575,0,0,0,4.637-2.469,4.135,4.135,0,0,0-2.108-5.42,5.276,5.276,0,0,0-.9-.3,10.229,10.229,0,0,0-2.349-.12h-65.34V407.025a16.745,16.745,0,0,1,1.807-.18h64.979a17.354,17.354,0,0,1,3.493,34.386,18.379,18.379,0,0,1-3.132.3c-14.754.06-29.449,0-44.2.06a40.429,40.429,0,0,0-8.552.9A17.512,17.512,0,0,0,203.743,455.263Z" transform="translate(-203.612 -380.221)" fill="#ff395c"/>
        </g>
        <g id="Group_82" data-name="Group 82" transform="translate(0 132.711)">
          <g id="Group_76" data-name="Group 76">
            <path id="Path_134" data-name="Path 134" d="M211.16,612.416l2.469,5.48,5.6.9-4.035,4.276.964,6.022-5-2.83-5,2.83.963-6.022L203.09,618.8l5.6-.9Z" transform="translate(-203.09 -612.416)" fill="#ff912a"/>
          </g>
          <g id="Group_78" data-name="Group 78" transform="translate(21.921)">
            <path id="Path_134-2" data-name="Path 134-2" d="M253.636,612.416l2.469,5.48,5.6.9-4.035,4.276.964,6.022-5-2.83-5,2.83.964-6.022-4.035-4.276,5.6-.9Z" transform="translate(-245.566 -612.416)" fill="#ff912a"/>
          </g>
          <g id="Group_79" data-name="Group 79" transform="translate(48.238)">
            <path id="Path_134-3" data-name="Path 134-3" d="M304.63,612.416l2.47,5.48,5.6.9-4.035,4.276.964,6.022-5-2.83-5,2.83.964-6.022-4.035-4.276,5.6-.9Z" transform="translate(-296.561 -612.416)" fill="#ff912a"/>
          </g>
          <g id="Group_80" data-name="Group 80" transform="translate(70.158)">
            <path id="Path_134-4" data-name="Path 134-4" d="M347.107,612.416l2.469,5.48,5.6.9-4.035,4.276.964,6.022-5-2.83-5,2.83.964-6.022-4.035-4.336,5.6-.9Z" transform="translate(-339.037 -612.416)" fill="#ff912a"/>
          </g>
          <g id="Group_81" data-name="Group 81" transform="translate(92.079)">
            <path id="Path_134-5" data-name="Path 134-5" d="M389.583,612.416l2.469,5.48,5.6.9-4.035,4.276.964,6.022-5-2.83-5,2.83.964-6.022-4.035-4.276,5.6-.9Z" transform="translate(-381.513 -612.416)" fill="#ff912a"/>
          </g>
        </g>
      </g>
    </g>
  </g>
</svg>
